<svg width="25" height="24" viewBox="0 0 25 24" fill="none" xmlns="http://www.w3.org/2000/svg">
<path d="M9.91006 10.87C9.81006 10.86 9.69006 10.86 9.58006 10.87C7.20006 10.79 5.31006 8.84 5.31006 6.44C5.31006 3.99 7.29006 2 9.75006 2C12.2001 2 14.1901 3.99 14.1901 6.44C14.1801 8.84 12.2901 10.79 9.91006 10.87Z" stroke="#C2C2C2" stroke-width="1.5" stroke-linecap="round" stroke-linejoin="round"/>
<path d="M17.16 4C19.1 4 20.66 5.57 20.66 7.5C20.66 9.39 19.16 10.93 17.29 11C17.21 10.99 17.12 10.99 17.03 11" stroke="#C2C2C2" stroke-width="1.5" stroke-linecap="round" stroke-linejoin="round"/>
<path d="M4.90997 14.56C2.48997 16.18 2.48997 18.82 4.90997 20.43C7.65997 22.27 12.17 22.27 14.92 20.43C17.34 18.81 17.34 16.17 14.92 14.56C12.18 12.73 7.66997 12.73 4.90997 14.56Z" stroke="#C2C2C2" stroke-width="1.5" stroke-linecap="round" stroke-linejoin="round"/>
<path d="M19.0901 20C19.8101 19.85 20.4901 19.56 21.0501 19.13C22.6101 17.96 22.6101 16.03 21.0501 14.86C20.5001 14.44 19.8301 14.16 19.1201 14" stroke="#C2C2C2" stroke-width="1.5" stroke-linecap="round" stroke-linejoin="round"/>
<path d="M4.9107 14.56C2.4907 16.18 2.4907 18.82 4.9107 20.43C7.6607 22.27 12.1707 22.27 14.9207 20.43C17.3407 18.81 17.3407 16.17 14.9207 14.56C12.1807 12.73 7.6707 12.73 4.9107 14.56Z" stroke="#C2C2C2" stroke-width="1.5" stroke-linecap="round" stroke-linejoin="round"/>
</svg>
