<svg width="12" height="12" viewBox="0 0 12 12" fill="none" xmlns="http://www.w3.org/2000/svg">
<path d="M11.6764 5.47081C11.811 5.37108 11.9108 5.23195 11.9619 5.07293C12.0129 4.91392 12.0127 4.74298 11.9612 4.5841C11.9097 4.42522 11.8095 4.28636 11.6747 4.18699C11.5399 4.08762 11.3772 4.03272 11.2094 4.03L7.95128 3.90753C7.93526 3.90643 7.9199 3.90074 7.90706 3.89115C7.89421 3.88157 7.88442 3.86849 7.87888 3.8535L6.753 0.827786C6.69643 0.673849 6.59369 0.540926 6.45868 0.447013C6.32367 0.3531 6.16292 0.302734 5.99819 0.302734C5.83346 0.302734 5.67271 0.3531 5.5377 0.447013C5.40269 0.540926 5.29995 0.673849 5.24338 0.827786L4.12112 3.8643C4.11558 3.8793 4.10579 3.89237 4.09295 3.90196C4.0801 3.91155 4.06474 3.91723 4.04872 3.91833L0.790556 4.0408C0.622799 4.04353 0.460106 4.09843 0.325288 4.1978C0.190471 4.29717 0.09029 4.43603 0.0387928 4.59491C-0.0127043 4.75379 -0.0129354 4.92472 0.0381321 5.08374C0.0891995 5.24276 0.189005 5.38189 0.323553 5.48162L2.8794 7.48075C2.89219 7.49076 2.90175 7.50429 2.9069 7.51965C2.91205 7.53502 2.91256 7.55155 2.90836 7.5672L2.02866 10.6686C1.98307 10.8265 1.98749 10.9945 2.04131 11.1499C2.09513 11.3052 2.19573 11.4403 2.32944 11.5367C2.46315 11.6332 2.62347 11.6863 2.78859 11.6888C2.95371 11.6914 3.11562 11.6433 3.25228 11.551L5.95294 9.75003C5.96624 9.74089 5.98202 9.736 5.99819 9.736C6.01436 9.736 6.03014 9.74089 6.04344 9.75003L8.7441 11.551C8.87892 11.6464 9.04024 11.6977 9.20567 11.6977C9.3711 11.6977 9.53243 11.6464 9.66725 11.551C9.80099 11.4555 9.90169 11.3211 9.9555 11.1663C10.0093 11.0115 10.0136 10.8439 9.96772 10.6866L9.08078 7.5744C9.07608 7.55878 9.07634 7.54209 9.08152 7.52662C9.0867 7.51115 9.09656 7.49764 9.10974 7.48795L11.6764 5.47081Z" fill="#FDAF3B"/>
</svg>
